<svg width="32" height="32" viewBox="0 0 32 32" fill="none" xmlns="http://www.w3.org/2000/svg">
<g clip-path="url(#clip0_18_42)">
<path d="M32 16.098C32 7.26202 24.836 0.0980225 16 0.0980225C7.164 0.0980225 0 7.26202 0 16.098C0 24.084 5.85 30.703 13.5 31.903V20.723H9.437V16.096H13.5V12.574C13.5 8.56402 15.89 6.34802 19.544 6.34802C21.294 6.34802 23.125 6.66202 23.125 6.66202V10.599H21.107C19.119 10.599 18.499 11.832 18.499 13.098V16.098H22.936L22.226 20.724H18.5V31.904C26.149 30.703 32 24.083 32 16.098Z" fill="white"/>
</g>
<defs>
<clipPath id="clip0_18_42">
<rect width="32" height="32" fill="white"/>
</clipPath>
</defs>
</svg>
