<svg width="222" height="38" viewBox="0 0 222 38" fill="none" xmlns="http://www.w3.org/2000/svg">
<g clip-path="url(#clip0_6_4)">
<path d="M28.8594 33.6016C27.2969 34.9297 25.5547 35.9531 23.6328 36.6719C21.7109 37.375 19.7109 37.7266 17.6328 37.7266C16.0391 37.7266 14.5 37.5156 13.0156 37.0938C11.5469 36.6875 10.1719 36.1094 8.89062 35.3594C7.60938 34.5938 6.4375 33.6875 5.375 32.6406C4.3125 31.5781 3.40625 30.4062 2.65625 29.125C1.90625 27.8281 1.32031 26.4375 0.898438 24.9531C0.492188 23.4688 0.289062 21.9297 0.289062 20.3359C0.289062 18.7422 0.492188 17.2109 0.898438 15.7422C1.32031 14.2734 1.90625 12.8984 2.65625 11.6172C3.40625 10.3203 4.3125 9.14844 5.375 8.10156C6.4375 7.03906 7.60938 6.13281 8.89062 5.38281C10.1719 4.63281 11.5469 4.05469 13.0156 3.64844C14.5 3.22656 16.0391 3.01562 17.6328 3.01562C19.7109 3.01562 21.7109 3.375 23.6328 4.09375C25.5547 4.79688 27.2969 5.8125 28.8594 7.14062L25.3438 13C24.3281 11.9688 23.1562 11.1641 21.8281 10.5859C20.5 9.99219 19.1016 9.69531 17.6328 9.69531C16.1641 9.69531 14.7812 9.97656 13.4844 10.5391C12.2031 11.1016 11.0781 11.8672 10.1094 12.8359C9.14062 13.7891 8.375 14.9141 7.8125 16.2109C7.25 17.4922 6.96875 18.8672 6.96875 20.3359C6.96875 21.8203 7.25 23.2109 7.8125 24.5078C8.375 25.8047 9.14062 26.9375 10.1094 27.9062C11.0781 28.875 12.2031 29.6406 13.4844 30.2031C14.7812 30.7656 16.1641 31.0469 17.6328 31.0469C18.4766 31.0469 19.2969 30.9453 20.0938 30.7422C20.8906 30.5391 21.6484 30.2578 22.3672 29.8984V20.3359H28.8594V33.6016ZM32.0703 13.4688C32.0703 12.0781 32.3359 10.7734 32.8672 9.55469C33.3984 8.33594 34.1172 7.27344 35.0234 6.36719C35.9453 5.44531 37.0156 4.71875 38.2344 4.1875C39.4531 3.65625 40.7578 3.39062 42.1484 3.39062H57.5703V10.1172H42.1484C41.6797 10.1172 41.2422 10.2031 40.8359 10.375C40.4297 10.5469 40.0703 10.7891 39.7578 11.1016C39.4609 11.3984 39.2266 11.75 39.0547 12.1562C38.8828 12.5625 38.7969 13 38.7969 13.4688C38.7969 13.9375 38.8828 14.3828 39.0547 14.8047C39.2266 15.2109 39.4609 15.5703 39.7578 15.8828C40.0703 16.1797 40.4297 16.4141 40.8359 16.5859C41.2422 16.7578 41.6797 16.8438 42.1484 16.8438H48.875C50.2656 16.8438 51.5703 17.1094 52.7891 17.6406C54.0234 18.1562 55.0938 18.875 56 19.7969C56.9219 20.7031 57.6406 21.7734 58.1562 23.0078C58.6875 24.2266 58.9531 25.5312 58.9531 26.9219C58.9531 28.3125 58.6875 29.6172 58.1562 30.8359C57.6406 32.0547 56.9219 33.125 56 34.0469C55.0938 34.9531 54.0234 35.6719 52.7891 36.2031C51.5703 36.7344 50.2656 37 48.875 37H33.9453V30.2734H48.875C49.3438 30.2734 49.7812 30.1875 50.1875 30.0156C50.5938 29.8438 50.9453 29.6094 51.2422 29.3125C51.5547 29 51.7969 28.6406 51.9688 28.2344C52.1406 27.8281 52.2266 27.3906 52.2266 26.9219C52.2266 26.4531 52.1406 26.0156 51.9688 25.6094C51.7969 25.2031 51.5547 24.8516 51.2422 24.5547C50.9453 24.2422 50.5938 24 50.1875 23.8281C49.7812 23.6562 49.3438 23.5703 48.875 23.5703H42.1484C40.7578 23.5703 39.4531 23.3047 38.2344 22.7734C37.0156 22.2422 35.9453 21.5234 35.0234 20.6172C34.1172 19.6953 33.3984 18.625 32.8672 17.4062C32.3359 16.1719 32.0703 14.8594 32.0703 13.4688ZM103.672 33.5547C102.109 34.8984 100.359 35.9297 98.4219 36.6484C96.4844 37.3672 94.4766 37.7266 92.3984 37.7266C90.8047 37.7266 89.2656 37.5156 87.7812 37.0938C86.3125 36.6875 84.9297 36.1094 83.6328 35.3594C82.3516 34.5938 81.1797 33.6797 80.1172 32.6172C79.0547 31.5547 78.1406 30.3828 77.375 29.1016C76.625 27.8047 76.0391 26.4219 75.6172 24.9531C75.2109 23.4688 75.0078 21.9297 75.0078 20.3359C75.0078 18.7422 75.2109 17.2031 75.6172 15.7188C76.0391 14.2344 76.625 12.8516 77.375 11.5703C78.1406 10.2734 79.0547 9.09375 80.1172 8.03125C81.1797 6.96875 82.3516 6.0625 83.6328 5.3125C84.9297 4.54687 86.3125 3.96094 87.7812 3.55469C89.2656 3.13281 90.8047 2.92188 92.3984 2.92188C94.4766 2.92188 96.4844 3.28125 98.4219 4C100.359 4.70312 102.109 5.73438 103.672 7.09375L100.109 12.9531C99.125 11.8906 97.9609 11.0781 96.6172 10.5156C95.2734 9.9375 93.8672 9.64844 92.3984 9.64844C90.9141 9.64844 89.5234 9.92969 88.2266 10.4922C86.9297 11.0547 85.7969 11.8203 84.8281 12.7891C83.8594 13.7422 83.0938 14.875 82.5312 16.1875C81.9688 17.4844 81.6875 18.8672 81.6875 20.3359C81.6875 21.8047 81.9688 23.1875 82.5312 24.4844C83.0938 25.7656 83.8594 26.8906 84.8281 27.8594C85.7969 28.8281 86.9297 29.5938 88.2266 30.1562C89.5234 30.7188 90.9141 31 92.3984 31C93.8672 31 95.2734 30.7188 96.6172 30.1562C97.9609 29.5781 99.125 28.7578 100.109 27.6953L103.672 33.5547ZM130.32 37H128.773L126.289 33.5547C125.68 34.1016 125.031 34.6172 124.344 35.1016C123.672 35.5703 122.961 35.9844 122.211 36.3438C121.461 36.6875 120.688 36.9609 119.891 37.1641C119.109 37.3672 118.312 37.4688 117.5 37.4688C115.734 37.4688 114.07 37.1719 112.508 36.5781C110.961 35.9844 109.602 35.125 108.43 34C107.273 32.8594 106.359 31.4688 105.688 29.8281C105.016 28.1875 104.68 26.3203 104.68 24.2266C104.68 22.2734 105.016 20.4844 105.688 18.8594C106.359 17.2188 107.273 15.8125 108.43 14.6406C109.602 13.4688 110.961 12.5625 112.508 11.9219C114.07 11.2656 115.734 10.9375 117.5 10.9375C118.312 10.9375 119.117 11.0391 119.914 11.2422C120.711 11.4453 121.484 11.7266 122.234 12.0859C122.984 12.4453 123.695 12.8672 124.367 13.3516C125.055 13.8359 125.695 14.3594 126.289 14.9219L128.773 11.9453H130.32V37ZM123.875 24.2266C123.875 23.3516 123.703 22.5078 123.359 21.6953C123.031 20.8672 122.578 20.1406 122 19.5156C121.422 18.875 120.742 18.3672 119.961 17.9922C119.195 17.6016 118.375 17.4062 117.5 17.4062C116.625 17.4062 115.797 17.5547 115.016 17.8516C114.25 18.1484 113.578 18.5859 113 19.1641C112.438 19.7422 111.992 20.4609 111.664 21.3203C111.336 22.1641 111.172 23.1328 111.172 24.2266C111.172 25.3203 111.336 26.2969 111.664 27.1562C111.992 28 112.438 28.7109 113 29.2891C113.578 29.8672 114.25 30.3047 115.016 30.6016C115.797 30.8984 116.625 31.0469 117.5 31.0469C118.375 31.0469 119.195 30.8594 119.961 30.4844C120.742 30.0938 121.422 29.5859 122 28.9609C122.578 28.3203 123.031 27.5938 123.359 26.7812C123.703 25.9531 123.875 25.1016 123.875 24.2266ZM142.766 5.07812C142.766 5.67187 142.648 6.22656 142.414 6.74219C142.195 7.25781 141.891 7.71094 141.5 8.10156C141.109 8.47656 140.648 8.78125 140.117 9.01562C139.602 9.23437 139.047 9.34375 138.453 9.34375C137.859 9.34375 137.297 9.23437 136.766 9.01562C136.25 8.78125 135.797 8.47656 135.406 8.10156C135.031 7.71094 134.727 7.25781 134.492 6.74219C134.273 6.22656 134.164 5.67187 134.164 5.07812C134.164 4.5 134.273 3.95312 134.492 3.4375C134.727 2.90625 135.031 2.45312 135.406 2.07812C135.797 1.6875 136.25 1.38281 136.766 1.16406C137.297 0.929688 137.859 0.8125 138.453 0.8125C139.047 0.8125 139.602 0.929688 140.117 1.16406C140.648 1.38281 141.109 1.6875 141.5 2.07812C141.891 2.45312 142.195 2.90625 142.414 3.4375C142.648 3.95312 142.766 4.5 142.766 5.07812ZM141.664 37H135.219V11.8984H141.664V37ZM169.672 37H161.844L156.852 29.3125L151.812 37H143.984L153.148 24.1328L143.984 11.7578H151.812L156.852 18.9531L161.844 11.7578H169.672L160.484 24.1328L169.672 37ZM195.195 37H193.648L191.164 33.5547C190.555 34.1016 189.906 34.6172 189.219 35.1016C188.547 35.5703 187.836 35.9844 187.086 36.3438C186.336 36.6875 185.562 36.9609 184.766 37.1641C183.984 37.3672 183.188 37.4688 182.375 37.4688C180.609 37.4688 178.945 37.1719 177.383 36.5781C175.836 35.9844 174.477 35.125 173.305 34C172.148 32.8594 171.234 31.4688 170.562 29.8281C169.891 28.1875 169.555 26.3203 169.555 24.2266C169.555 22.2734 169.891 20.4844 170.562 18.8594C171.234 17.2188 172.148 15.8125 173.305 14.6406C174.477 13.4688 175.836 12.5625 177.383 11.9219C178.945 11.2656 180.609 10.9375 182.375 10.9375C183.188 10.9375 183.992 11.0391 184.789 11.2422C185.586 11.4453 186.359 11.7266 187.109 12.0859C187.859 12.4453 188.57 12.8672 189.242 13.3516C189.93 13.8359 190.57 14.3594 191.164 14.9219L193.648 11.9453H195.195V37ZM188.75 24.2266C188.75 23.3516 188.578 22.5078 188.234 21.6953C187.906 20.8672 187.453 20.1406 186.875 19.5156C186.297 18.875 185.617 18.3672 184.836 17.9922C184.07 17.6016 183.25 17.4062 182.375 17.4062C181.5 17.4062 180.672 17.5547 179.891 17.8516C179.125 18.1484 178.453 18.5859 177.875 19.1641C177.312 19.7422 176.867 20.4609 176.539 21.3203C176.211 22.1641 176.047 23.1328 176.047 24.2266C176.047 25.3203 176.211 26.2969 176.539 27.1562C176.867 28 177.312 28.7109 177.875 29.2891C178.453 29.8672 179.125 30.3047 179.891 30.6016C180.672 30.8984 181.5 31.0469 182.375 31.0469C183.25 31.0469 184.07 30.8594 184.836 30.4844C185.617 30.0938 186.297 29.5859 186.875 28.9609C187.453 28.3203 187.906 27.5938 188.234 26.7812C188.578 25.9531 188.75 25.1016 188.75 24.2266ZM213.875 37H199.25V30.625H213.875C214.312 30.625 214.688 30.4688 215 30.1562C215.312 29.8438 215.469 29.4688 215.469 29.0312C215.469 28.5781 215.312 28.2812 215 28.1406C214.688 28 214.312 27.9297 213.875 27.9297H207.219C206.109 27.9297 205.07 27.7188 204.102 27.2969C203.133 26.875 202.289 26.3047 201.57 25.5859C200.852 24.8516 200.281 24 199.859 23.0312C199.453 22.0625 199.25 21.0234 199.25 19.9141C199.25 18.8047 199.453 17.7656 199.859 16.7969C200.281 15.8281 200.852 14.9844 201.57 14.2656C202.289 13.5469 203.133 12.9844 204.102 12.5781C205.07 12.1562 206.109 11.9453 207.219 11.9453H220.18V18.3203H207.219C206.781 18.3203 206.406 18.4766 206.094 18.7891C205.781 19.1016 205.625 19.4766 205.625 19.9141C205.625 20.3672 205.781 20.7578 206.094 21.0859C206.406 21.3984 206.781 21.5547 207.219 21.5547H213.875C214.969 21.5547 216 21.7422 216.969 22.1172C217.938 22.4766 218.781 22.9844 219.5 23.6406C220.219 24.2969 220.789 25.0859 221.211 26.0078C221.633 26.9297 221.844 27.9375 221.844 29.0312C221.844 30.1406 221.633 31.1797 221.211 32.1484C220.789 33.1016 220.219 33.9453 219.5 34.6797C218.781 35.3984 217.938 35.9688 216.969 36.3906C216 36.7969 214.969 37 213.875 37Z" fill="white"/>
</g>
<defs>
<clipPath id="clip0_6_4">
<rect width="222" height="38" fill="white"/>
</clipPath>
</defs>
</svg>
